<?xml version="1.0" encoding="utf-8"?>
<!-- Generator: Adobe Illustrator 12.0.0, SVG Export Plug-In  -->
<!DOCTYPE svg PUBLIC "-//W3C//DTD SVG 1.1//EN" "http://www.w3.org/Graphics/SVG/1.1/DTD/svg11.dtd" [
	<!ENTITY ns_flows "http://ns.adobe.com/Flows/1.0/">
	<!ENTITY ns_svg "http://www.w3.org/2000/svg">
	<!ENTITY ns_xlink "http://www.w3.org/1999/xlink">
]>
<svg  version="1.1" xmlns="&ns_svg;" xmlns:xlink="&ns_xlink;" xmlns:a="http://ns.adobe.com/AdobeSVGViewerExtensions/3.0/"
	 width="456" height="456" viewBox="-0.9277344 -0.9282227 456 456" enable-background="new -0.9277344 -0.9282227 456 456"
	 xml:space="preserve">
<defs>
</defs>
<rect x="144.0991058" y="119.0015106" transform="matrix(0.7085138 -0.7056969 0.7056969 0.7085138 -173.0454102 193.522522)" stroke="#ffffff" stroke-width="2" width="7.280314" height="374.4676819"/>
<path stroke="#ffffff" stroke-width="3" d="M42.7861328,200.5004883c0,0,51.9506836-71.6210938,118.5712891-49.2856445
	C210.3579102,167.6430664,196.1152344,125.5102539,278.5,97.6430664c67.5722656-22.8569336,96.4287109-10,96.4287109-10
	s-32.484375,27.5869141,17.8574219,84.2856445c41.8574219,47.1430664,27.5722656,37.8574219,32.8574219,73.5717773
	c1.8574219,8.5712891,1.8574219,15,7.8564453,23.5712891c0,0-65.9990234-27.8574219-133.1416016,65
	c-33.5722656,29.2861328-47.8574219,12.8574219-37.8574219,2.8574219
	c2.4726563-2.0234375,39.2851563-27.1435547-19.2861328-15.7148438c-16.1855469,3.1582031-39.2856445,23.5712891-49.2856445,30
	S42.7861328,200.5004883,42.7861328,200.5004883z"/>
<path stroke="#ffffff" stroke-width="3" d="M255.0722656,339.5004883c0,0,1.7138672-6.1425781,12.4287109-12.5712891
	c9.8955078-5.9365234-14.2861328-4.2861328-19.2861328-2.1435547
	C243.5722656,326.7749023,255.0722656,339.5004883,255.0722656,339.5004883z"/>
<line fill="none" stroke="#FFFFFF" stroke-width="2" x1="273.2148438" y1="313.3579102" x2="232.5009766" y2="250.5004883"/>
</svg>
